<svg width="20" height="20" viewBox="0 0 20 20" fill="none" xmlns="http://www.w3.org/2000/svg">
<path d="M5.00007 10H3.43757C2.93757 10 2.53174 10.4059 2.53174 10.9059V16.8025C2.53174 17.3025 2.93757 17.7084 3.43757 17.7084H4.99841C5.49841 17.7084 5.90424 17.3025 5.90424 16.8025V10.9059C5.90424 10.4059 5.49841 10 4.99841 10M10.7809 6.14585H9.22007C8.72007 6.14585 8.31424 6.55169 8.31424 7.05169V16.8025C8.31424 17.3025 8.71924 17.7084 9.21924 17.7084H10.7809C11.2809 17.7084 11.6867 17.3025 11.6867 16.8025V7.05169C11.6867 6.55169 11.2809 6.14585 10.7809 6.14585ZM16.5617 2.29169H15.0009C14.5009 2.29169 14.0951 2.69752 14.0951 3.19752V16.8025C14.0951 17.3025 14.5009 17.7084 15.0009 17.7084H16.5617C17.0617 17.7084 17.4676 17.3025 17.4676 16.8025V3.19752C17.4676 2.69752 17.0617 2.29169 16.5617 2.29169Z" stroke="#808080" stroke-width="1.3" stroke-linecap="round" stroke-linejoin="round"/>
</svg>
