<svg width="20" height="20" viewBox="0 0 20 20" fill="none" xmlns="http://www.w3.org/2000/svg">
<path d="M9.715 3.006C10.295 2.98179 10.8758 3.02982 11.444 3.149L13.648 5.353C13.7423 5.44408 13.8686 5.49448 13.9997 5.49334C14.1308 5.4922 14.2562 5.43961 14.3489 5.34691C14.4416 5.25421 14.4942 5.1288 14.4953 4.9977C14.4965 4.8666 14.4461 4.7403 14.355 4.646L13.885 4.176C14.7463 4.7513 15.4691 5.51056 16.0015 6.39903C16.5338 7.28749 16.8624 8.28302 16.9634 9.31381C17.0645 10.3446 16.9356 11.385 16.5859 12.3599C16.2363 13.3349 15.6746 14.2201 14.9415 14.9517C14.2084 15.6833 13.322 16.2431 12.3463 16.5908C11.3707 16.9384 10.33 17.0652 9.29946 16.962C8.26887 16.8588 7.27403 16.5282 6.38666 15.9941C5.4993 15.4599 4.74153 14.7355 4.168 13.873L4.648 14.353C4.69412 14.4008 4.7493 14.4388 4.8103 14.4651C4.8713 14.4913 4.93691 14.505 5.0033 14.5056C5.06969 14.5062 5.13553 14.4936 5.19698 14.4684C5.25843 14.4433 5.31425 14.4061 5.3612 14.3592C5.40814 14.3123 5.44527 14.2564 5.47041 14.195C5.49555 14.1335 5.5082 14.0677 5.50763 14.0013C5.50705 13.9349 5.49326 13.8693 5.46705 13.8083C5.44085 13.7473 5.40276 13.6921 5.355 13.646L3.148 11.439C3.02924 10.8711 2.98154 10.2907 3.006 9.711L4.898 11.603C4.94412 11.6508 4.9993 11.6888 5.0603 11.7151C5.1213 11.7413 5.18691 11.755 5.2533 11.7556C5.31969 11.7562 5.38553 11.7436 5.44698 11.7184C5.50843 11.6933 5.56425 11.6561 5.6112 11.6092C5.65814 11.5623 5.69527 11.5064 5.72041 11.445C5.74555 11.3835 5.7582 11.3177 5.75763 11.2513C5.75705 11.1849 5.74326 11.1193 5.71705 11.0583C5.69085 10.9973 5.65276 10.9421 5.605 10.896L3.17 8.461C3.26333 8.04567 3.392 7.64567 3.556 7.261L5.898 9.603C5.94412 9.65075 5.9993 9.68885 6.0603 9.71505C6.1213 9.74126 6.18691 9.75505 6.2533 9.75562C6.31969 9.7562 6.38553 9.74355 6.44698 9.71841C6.50843 9.69327 6.56425 9.65614 6.6112 9.6092C6.65814 9.56225 6.69527 9.50642 6.72041 9.44498C6.74555 9.38353 6.7582 9.31769 6.75763 9.2513C6.75705 9.18491 6.74326 9.1193 6.71705 9.0583C6.69085 8.9973 6.65276 8.94212 6.605 8.896L4.038 6.329C4.238 6.00567 4.462 5.701 4.71 5.415L7.148 7.853C7.19412 7.90076 7.2493 7.93885 7.3103 7.96505C7.3713 7.99126 7.43691 8.00505 7.5033 8.00562C7.56969 8.0062 7.63553 7.99355 7.69698 7.96841C7.75843 7.94327 7.81425 7.90614 7.8612 7.8592C7.90814 7.81225 7.94527 7.75642 7.97041 7.69498C7.99555 7.63353 8.0082 7.56769 8.00763 7.5013C8.00705 7.43491 7.99326 7.3693 7.96705 7.3083C7.94085 7.2473 7.90276 7.19212 7.855 7.146L5.417 4.708C5.70367 4.46 6.00867 4.23633 6.332 4.037L8.898 6.603C8.94412 6.65076 8.9993 6.68885 9.0603 6.71505C9.1213 6.74126 9.18691 6.75505 9.2533 6.75563C9.31969 6.7562 9.38553 6.74355 9.44698 6.71841C9.50842 6.69327 9.56425 6.65614 9.6112 6.6092C9.65814 6.56225 9.69527 6.50642 9.72041 6.44498C9.74555 6.38353 9.7582 6.31769 9.75763 6.2513C9.75705 6.18491 9.74326 6.1193 9.71705 6.0583C9.69085 5.9973 9.65275 5.94212 9.605 5.896L7.264 3.555C7.65158 3.39051 8.05321 3.26132 8.464 3.169L10.898 5.603C10.9923 5.69408 11.1186 5.74448 11.2497 5.74334C11.3808 5.7422 11.5062 5.68961 11.5989 5.59691C11.6916 5.50421 11.7442 5.3788 11.7453 5.2477C11.7465 5.1166 11.6961 4.9903 11.605 4.896L9.715 3.006ZM10 2C7.87827 2 5.84344 2.84285 4.34315 4.34315C2.84285 5.84344 2 7.87827 2 10C2 12.1217 2.84285 14.1566 4.34315 15.6569C5.84344 17.1571 7.87827 18 10 18C12.1217 18 14.1566 17.1571 15.6569 15.6569C17.1571 14.1566 18 12.1217 18 10C18 7.87827 17.1571 5.84344 15.6569 4.34315C14.1566 2.84285 12.1217 2 10 2Z" fill="#808080"/>
</svg>
