<svg width="20" height="20" viewBox="0 0 20 20" fill="none" xmlns="http://www.w3.org/2000/svg">
<path d="M15.8334 2.5C16.4965 2.5 17.1323 2.76339 17.6012 3.23223C18.07 3.70107 18.3334 4.33696 18.3334 5V13.3333C18.3334 13.9964 18.07 14.6323 17.6012 15.1011C17.1323 15.5699 16.4965 15.8333 15.8334 15.8333H6.11091L3.33341 17.9167C2.64675 18.4317 1.66675 17.9417 1.66675 17.0833V5C1.66675 4.33696 1.93014 3.70107 2.39898 3.23223C2.86782 2.76339 3.50371 2.5 4.16675 2.5H15.8334ZM15.8334 4.16667H4.16675C3.94573 4.16667 3.73377 4.25446 3.57749 4.41074C3.42121 4.56702 3.33341 4.77899 3.33341 5V15.8333L5.11091 14.5C5.39941 14.2836 5.7503 14.1667 6.11091 14.1667H15.8334C16.0544 14.1667 16.2664 14.0789 16.4227 13.9226C16.579 13.7663 16.6667 13.5543 16.6667 13.3333V5C16.6667 4.77899 16.579 4.56702 16.4227 4.41074C16.2664 4.25446 16.0544 4.16667 15.8334 4.16667ZM9.16675 10C9.37915 10.0002 9.58344 10.0816 9.73789 10.2274C9.89233 10.3732 9.98528 10.5725 9.99772 10.7845C10.0102 10.9965 9.94119 11.2053 9.80486 11.3682C9.66854 11.5311 9.47516 11.6357 9.26425 11.6608L9.16675 11.6667H6.66675C6.45435 11.6664 6.25005 11.5851 6.09561 11.4393C5.94116 11.2935 5.84822 11.0942 5.83577 10.8822C5.82332 10.6701 5.89231 10.4614 6.02864 10.2985C6.16496 10.1356 6.35833 10.0309 6.56925 10.0058L6.66675 10H9.16675ZM13.3334 6.66667C13.5544 6.66667 13.7664 6.75446 13.9227 6.91074C14.079 7.06703 14.1667 7.27899 14.1667 7.5C14.1667 7.72101 14.079 7.93298 13.9227 8.08926C13.7664 8.24554 13.5544 8.33333 13.3334 8.33333H6.66675C6.44573 8.33333 6.23377 8.24554 6.07749 8.08926C5.92121 7.93298 5.83341 7.72101 5.83341 7.5C5.83341 7.27899 5.92121 7.06703 6.07749 6.91074C6.23377 6.75446 6.44573 6.66667 6.66675 6.66667H13.3334Z" fill="#808080"/>
</svg>
