<svg width="20" height="20" viewBox="0 0 20 20" fill="none" xmlns="http://www.w3.org/2000/svg">
<g clip-path="url(#clip0_658_9093)">
<path d="M4.99984 14.32V7.34667C5.55585 7.15009 6.02447 6.76328 6.32287 6.2546C6.62127 5.74593 6.73023 5.14814 6.63051 4.56689C6.53078 3.98565 6.22878 3.45837 5.77789 3.07825C5.327 2.69813 4.75625 2.48965 4.16651 2.48965C3.57677 2.48965 3.00602 2.69813 2.55513 3.07825C2.10424 3.45837 1.80224 3.98565 1.70251 4.56689C1.60279 5.14814 1.71175 5.74593 2.01015 6.2546C2.30855 6.76328 2.77716 7.15009 3.33318 7.34667V14.32C2.77716 14.5166 2.30855 14.9034 2.01015 15.4121C1.71175 15.9207 1.60279 16.5185 1.70251 17.0998C1.80224 17.681 2.10424 18.2083 2.55513 18.5884C3.00602 18.9685 3.57677 19.177 4.16651 19.177C4.75625 19.177 5.327 18.9685 5.77789 18.5884C6.22878 18.2083 6.53078 17.681 6.63051 17.0998C6.73023 16.5185 6.62127 15.9207 6.32287 15.4121C6.02447 14.9034 5.55585 14.5166 4.99984 14.32ZM16.6665 14.32V5.83334C16.6665 5.39131 16.4909 4.96739 16.1784 4.65483C15.8658 4.34227 15.4419 4.16667 14.9998 4.16667H10.6898L12.0115 2.84501L10.8332 1.66667L8.67818 3.82167L7.49984 5.00001L8.67818 6.17834L10.8332 8.33334L12.0115 7.15501L10.6898 5.83334H14.9998V14.32C14.4438 14.5166 13.9752 14.9034 13.6768 15.4121C13.3784 15.9207 13.2695 16.5185 13.3692 17.0998C13.4689 17.681 13.7709 18.2083 14.2218 18.5884C14.6727 18.9685 15.2434 19.177 15.8332 19.177C16.4229 19.177 16.9937 18.9685 17.4446 18.5884C17.8954 18.2083 18.1974 17.681 18.2972 17.0998C18.3969 16.5185 18.2879 15.9207 17.9895 15.4121C17.6911 14.9034 17.2225 14.5166 16.6665 14.32Z" fill="#808080"/>
</g>
<defs>
<clipPath id="clip0_658_9093">
<rect width="20" height="20" fill="white"/>
</clipPath>
</defs>
</svg>
